<?xml version="1.0" encoding="UTF-8"?>
<svg width="112px" height="63px" viewBox="0 0 112 63" version="1.1" xmlns="http://www.w3.org/2000/svg" xmlns:xlink="http://www.w3.org/1999/xlink">
    <title>Group</title>
    <g id="Page-2" stroke="none" stroke-width="1" fill="none" fill-rule="evenodd">
        <g id="Group" fill="#2F7DEB">
            <path d="M73.1715027,20.2552874 L108.997534,17.3953794 C111.362319,17.2066227 112.851257,20.2077012 111.468652,22.3762745 L86.4068554,61.6864544 C85.8813476,62.5107956 85.0351626,63 84.1338524,63 L27.9327822,63 C27.0328711,63 26.1878054,62.5123839 25.6617379,61.689631 L0.533338286,22.3794194 C-0.852625519,20.2111955 0.636313186,17.2060191 3.00306255,17.3953794 L38.7199626,20.2556051 L53.9750785,1.05015757 C55.0929718,-0.357112007 57.0517334,-0.348919421 58.1603926,1.06811836 L73.1715027,20.2552874 Z M80.6741196,56.7674086 L57.4233385,46.9823673 L57.4233385,56.7674086 L80.6741196,56.7674086 Z M54.6251075,56.7674086 L54.6251075,46.9823673 L31.3743265,56.7674086 L54.6251075,56.7674086 Z M51.9421637,44.6449867 L28.1865817,54.6304748 L10.7099503,27.2743226 L51.9421637,44.6449867 Z M60.057873,44.6449867 L83.8134549,54.6304748 L101.290086,27.2743226 L60.057873,44.6449867 Z M54.6474934,42.3616092 L54.6474934,9.43672233 L35.2238528,34.127727 L54.6474934,42.3616092 Z M57.4233385,42.3616092 L57.4233385,9.44082021 L76.8472589,34.127727 L57.4233385,42.3616092 Z M29.5277739,31.8519735 L33.9968286,26.196961 L12.1630717,24.4348721 L29.5277739,31.8519735 Z M82.3096856,31.8519735 L77.8409107,26.196961 L99.6746676,24.4348721 L82.3096856,31.8519735 Z" id="Shape"></path>
        </g>
    </g>
</svg>